<svg width="250" height="250" viewBox="0 0 250 250" fill="none" xmlns="http://www.w3.org/2000/svg">
<path d="M191.995 35H58.005C39.805 35 25 49.845 25 68.11L25.305 156.795C25.305 175.105 39.945 190 57.935 190H75.235L75.295 225.01C75.3 227.095 76.595 228.955 78.545 229.685C79.115 229.895 79.705 230 80.295 230C81.71 230 83.095 229.395 84.065 228.285L117.455 189.985L192.46 189.62C211.01 189.62 225 175.88 225 157.665V68.09C225 49.845 210.195 35 191.995 35ZM115 105.175C115.185 112.41 111.87 128.85 98.015 139.295C97.115 139.975 96.055 140.305 95.01 140.305C93.495 140.305 91.995 139.62 91.015 138.315C89.35 136.11 89.79 132.975 91.995 131.315C96.41 127.985 99.35 123.875 101.33 119.85C100.095 120.13 98.82 120.305 97.505 120.305C87.855 120.305 80.005 112.39 80.005 102.655C80.005 92.92 87.85 85 97.5 85C107.15 85 115 92.915 115 102.65V105.175ZM169.995 105.175C170.18 112.41 166.865 128.85 153.01 139.295C152.11 139.975 151.05 140.305 150.005 140.305C148.49 140.305 146.99 139.62 146.01 138.315C144.345 136.11 144.785 132.975 146.99 131.315C151.405 127.985 154.345 123.875 156.325 119.85C155.09 120.13 153.815 120.305 152.5 120.305C142.85 120.305 135 112.39 135 102.655C135 92.92 142.85 85.005 152.5 85.005C162.15 85.005 170 92.92 170 102.655L169.995 105.175Z" fill="#EDEDED"/>
</svg>
